<svg xmlns="http://www.w3.org/2000/svg" xmlns:xlink="http://www.w3.org/1999/xlink" viewBox="0 0 128 128"><defs><style>.cls-1{fill:url(#linear-gradient);}.cls-2{fill:#c7cdd8;}.cls-3{fill:url(#linear-gradient-2);}.cls-4{fill:url(#linear-gradient-3);}.cls-5{fill:#4da67f;}.cls-6{fill:url(#linear-gradient-4);}.cls-7{fill:#f6b756;}.cls-8{fill:url(#linear-gradient-5);}.cls-9{fill:url(#linear-gradient-6);}.cls-10{fill:#cba07a;}.cls-11{fill:url(#linear-gradient-7);}.cls-12{fill:url(#linear-gradient-8);}.cls-13{fill:url(#linear-gradient-9);}.cls-14{fill:url(#linear-gradient-10);}.cls-15{fill:#47566a;}</style><linearGradient id="linear-gradient" x1="23.31" y1="126.92" x2="23.31" y2="82.37" gradientUnits="userSpaceOnUse"><stop offset="0" stop-color="#d4d8e1"/><stop offset="1" stop-color="#f3f4f5"/></linearGradient><linearGradient id="linear-gradient-2" x1="37.77" y1="127" x2="37.77" y2="126.92" xlink:href="#linear-gradient"/><linearGradient id="linear-gradient-3" x1="50.54" y1="114.9" x2="50.54" y2="39.95" gradientUnits="userSpaceOnUse"><stop offset="0" stop-color="#6ab891"/><stop offset="1" stop-color="#85cba9"/></linearGradient><linearGradient id="linear-gradient-4" x1="47.36" y1="102.17" x2="47.36" y2="50.67" gradientUnits="userSpaceOnUse"><stop offset="0" stop-color="#fbcc88"/><stop offset="1" stop-color="#ffe5c3"/></linearGradient><linearGradient id="linear-gradient-5" x1="71.54" y1="78.84" x2="71.54" y2="39.95" xlink:href="#linear-gradient"/><linearGradient id="linear-gradient-6" x1="92.6" y1="69.71" x2="92.6" y2="1" gradientUnits="userSpaceOnUse"><stop offset="0" stop-color="#d1a788"/><stop offset="1" stop-color="#f2d3b8"/></linearGradient><linearGradient id="linear-gradient-7" x1="81.96" y1="54" x2="81.96" y2="48" gradientUnits="userSpaceOnUse"><stop offset="0" stop-color="#9b756d"/><stop offset="1" stop-color="#bc9388"/></linearGradient><linearGradient id="linear-gradient-8" x1="96.96" y1="48" x2="96.96" y2="42" xlink:href="#linear-gradient-7"/><linearGradient id="linear-gradient-9" x1="110.96" y1="27" x2="110.96" y2="21" xlink:href="#linear-gradient-7"/><linearGradient id="linear-gradient-10" x1="85.96" y1="27" x2="85.96" y2="21" xlink:href="#linear-gradient-7"/></defs><title>Energy Bar</title><g id="Energy_Bar" data-name="Energy Bar"><path class="cls-1" d="M39.93,124.8l-2.12,2.12-1.65-4.47-4.48-1.65L30,116.32l-4.48-1.64-1.65-4.48-4.48-1.66-1.65-4.47-4.47-1.65-1.65-4.48L7.18,96.29,5.52,91.81,1,90.15,3.16,88c2.12-2.12,5.66-1.41,9.9-5.66L45.59,114.9C41.34,119.14,42.05,122.68,39.93,124.8Z"/><path class="cls-2" d="M45.59,114.9c-4.25,4.24-3.54,7.78-5.66,9.9l-2.12,2.12-1.62-4.38.74-.74c2.12-2.12,1.41-5.66,5.66-9.9Z"/><line class="cls-3" x1="37.73" y1="127" x2="37.81" y2="126.92"/><path class="cls-4" d="M88,72.47,45.59,114.9,13.06,82.37,55.49,40Z"/><path class="cls-5" d="M87.59,72.05l-2.12,2.13c-4.21-4.21-12.12,4.47-16.55,8.9L66.8,81l2.12-2.12L57.49,50.67,55,53.18c-1-4.46-1.74-8.31-2.12-10.6L55.49,40l3.63,3.63c1.58,8.74,5.06,23.49,10.05,30.82,3.42-3.23,8.37-7.19,13.32-7.44C82.59,67,82.42,66.88,87.59,72.05Z"/><polygon class="cls-6" points="68.92 78.84 45.59 102.17 25.79 82.37 57.49 50.67 68.92 78.84"/><rect class="cls-5" x="35.3" y="90.06" width="60" height="4.24" transform="translate(-46.06 73.19) rotate(-45.01)"/><path class="cls-7" d="M68.92,78.84,66.8,81C61.09,75.25,57.24,62.8,55,53.18l2.51-2.51Z"/><path class="cls-8" d="M55.49,40s4.24,29.7,13.43,38.89c4.24-4.24,12.73-12.73,18.67-6.79"/><path class="cls-9" d="M124.84,30.12,85.25,69.71l-27-27L97.84,3.12a7.24,7.24,0,0,1,10.24,0l16.76,16.76A7.24,7.24,0,0,1,124.84,30.12Z"/><path class="cls-10" d="M124.84,30.12,85.25,69.71l-27-27,2.5-2.5,24.5,24.5c43-43,40.5-40.1,41.26-42.21A7.22,7.22,0,0,1,124.84,30.12Z"/><circle class="cls-11" cx="81.96" cy="51" r="3"/><circle class="cls-12" cx="96.96" cy="45" r="3"/><circle class="cls-13" cx="110.96" cy="24" r="3"/><circle class="cls-14" cx="85.96" cy="24" r="3"/><path class="cls-15" d="M128,25a8.23,8.23,0,0,0-2.41-5.83L108.83,2.41a8.26,8.26,0,0,0-11.66,0L58.29,41.3l-2.06-2.06,0,0a.63.63,0,0,0-.2-.13L55.87,39a1,1,0,0,0-.3-.05h-.19a1,1,0,0,0-.16.06l-.12,0a1.22,1.22,0,0,0-.19.12s-.07,0-.09.06L12.39,81.67a14.46,14.46,0,0,1-6.21,3.68,9.17,9.17,0,0,0-3.69,2L.37,89.45a1,1,0,0,0,.36,1.64l4.05,1.5,1.5,4a1,1,0,0,0,.59.59l4.05,1.49,1.49,4a1,1,0,0,0,.59.59l4,1.49,1.49,4a1,1,0,0,0,.59.59l4.05,1.5,1.49,4a1,1,0,0,0,.59.59l4.05,1.49,1.49,4a1,1,0,0,0,.59.6l4,1.49,1.36,3.7a1,1,0,0,0,.28.78,1,1,0,0,0,.71.29,1,1,0,0,0,.7-.29l.08-.08h0l2.13-2.12a9.17,9.17,0,0,0,2-3.69,14.46,14.46,0,0,1,3.68-6.21L88.76,73.18a1,1,0,0,0,0-1.41L86.7,69.71l38.89-38.88A8.23,8.23,0,0,0,128,25ZM45.63,113.49,30.07,97.93,14.51,82.37,54.84,42.05c.3,1.83.83,4.79,1.59,8.31L25.12,81.67a1,1,0,0,0-.29.7,1,1,0,0,0,.29.71l19.8,19.8a1,1,0,0,0,1.41,0L69.67,79.55h0c6.11-6.1,12.38-11.16,17-7.05ZM67.57,78.81l-21.94,22L27.24,82.37,57,52.67C59,61.65,62.51,73.09,67.57,78.81ZM69,77.4c-6.73-7.72-10.66-27.05-12-34.55L83.16,69C78,68.85,72.39,74,69,77.4ZM40.76,121.16a7.41,7.41,0,0,1-1.5,2.93l-1,1-1.11-3a1,1,0,0,0-.59-.59l-4-1.49L31,116a1,1,0,0,0-.59-.6l-4-1.48-1.49-4.05a1,1,0,0,0-.59-.59l-4.05-1.49-1.49-4a1,1,0,0,0-.59-.59l-4-1.49-1.49-4A1,1,0,0,0,12,97l-4-1.5L6.5,91.46a1,1,0,0,0-.59-.59l-3-1.11,1-1a7.41,7.41,0,0,1,2.93-1.5,16.65,16.65,0,0,0,6.24-3.47l31.15,31.15A16.65,16.65,0,0,0,40.76,121.16ZM85.29,68.3,59.7,42.71,98.59,3.83a6.23,6.23,0,0,1,8.82,0l16.76,16.76a6.23,6.23,0,0,1,0,8.82Z"/><path class="cls-15" d="M82,47a4,4,0,1,0,2.83,1.17A4,4,0,0,0,82,47Zm1.41,5.41a2,2,0,0,1-2.82,0,2,2,0,1,1,2.82,0Z"/><path class="cls-15" d="M97,41a4,4,0,1,0,2.83,1.17A4,4,0,0,0,97,41Zm1.41,5.41a2,2,0,0,1-2.82,0,2,2,0,1,1,2.82,0Z"/><path class="cls-15" d="M111,20a4,4,0,1,0,2.83,1.17A4,4,0,0,0,111,20Zm1.41,5.41a2,2,0,0,1-2.82,0,2,2,0,1,1,2.82,0Z"/><path class="cls-15" d="M86,20a4,4,0,1,0,2.83,1.17A4,4,0,0,0,86,20Zm1.41,5.41a2,2,0,0,1-2.82,0,2,2,0,1,1,2.82,0Z"/><circle class="cls-15" cx="110" cy="37" r="2"/><circle class="cls-15" cx="93" cy="33" r="2"/><circle class="cls-15" cx="73" cy="40" r="2"/><circle class="cls-15" cx="102" cy="11" r="2"/></g></svg>