<svg xmlns="http://www.w3.org/2000/svg" xmlns:xlink="http://www.w3.org/1999/xlink" viewBox="0 0 128 128"><defs><style>.cls-1{fill:url(#linear-gradient);}.cls-2{fill:#f6b756;}.cls-3{fill:url(#linear-gradient-2);}.cls-4{fill:url(#linear-gradient-3);}.cls-5{fill:url(#linear-gradient-4);}.cls-6{fill:url(#linear-gradient-5);}.cls-7{fill:url(#linear-gradient-6);}.cls-8{fill:url(#linear-gradient-7);}.cls-9{fill:url(#linear-gradient-8);}.cls-10{fill:url(#linear-gradient-9);}.cls-11{fill:url(#linear-gradient-10);}.cls-12{fill:url(#linear-gradient-11);}.cls-13{fill:url(#linear-gradient-12);}.cls-14{fill:#cba07a;}.cls-15{fill:url(#linear-gradient-13);}.cls-16{fill:#dd4e6a;}.cls-17{fill:#47566a;}</style><linearGradient id="linear-gradient" x1="102.71" y1="37.92" x2="102.71" y2="12.54" gradientUnits="userSpaceOnUse"><stop offset="0" stop-color="#fbcc88"/><stop offset="1" stop-color="#ffe5c3"/></linearGradient><linearGradient id="linear-gradient-2" x1="96.77" y1="57.51" x2="96.77" y2="36.77" xlink:href="#linear-gradient"/><linearGradient id="linear-gradient-3" x1="80.8" y1="50.69" x2="80.8" y2="11.65" xlink:href="#linear-gradient"/><linearGradient id="linear-gradient-4" x1="84.35" y1="69.93" x2="84.35" y2="49.19" xlink:href="#linear-gradient"/><linearGradient id="linear-gradient-5" x1="68.38" y1="63.11" x2="68.38" y2="24.07" xlink:href="#linear-gradient"/><linearGradient id="linear-gradient-6" x1="72" y1="82.28" x2="72" y2="61.54" xlink:href="#linear-gradient"/><linearGradient id="linear-gradient-7" x1="56.03" y1="75.46" x2="56.03" y2="36.42" xlink:href="#linear-gradient"/><linearGradient id="linear-gradient-8" x1="59.5" y1="94.78" x2="59.5" y2="74.04" xlink:href="#linear-gradient"/><linearGradient id="linear-gradient-9" x1="43.53" y1="87.96" x2="43.53" y2="48.92" xlink:href="#linear-gradient"/><linearGradient id="linear-gradient-10" x1="47.08" y1="107.21" x2="47.08" y2="86.46" gradientTransform="translate(148.85 132.02) rotate(135)" xlink:href="#linear-gradient"/><linearGradient id="linear-gradient-11" x1="31.11" y1="100.38" x2="31.11" y2="61.34" gradientTransform="translate(-4.07 160.03) rotate(-135)" xlink:href="#linear-gradient"/><linearGradient id="linear-gradient-12" x1="16.13" y1="127.01" x2="16.13" y2="96.61" gradientUnits="userSpaceOnUse"><stop offset="0" stop-color="#d1a788"/><stop offset="1" stop-color="#f2d3b8"/></linearGradient><linearGradient id="linear-gradient-13" x1="96.94" y1="127" x2="96.94" y2="67" gradientUnits="userSpaceOnUse"><stop offset="0" stop-color="#da5466"/><stop offset="1" stop-color="#e87092"/></linearGradient></defs><title>Gluten Free</title><g id="Gluten_Free" data-name="Gluten Free"><path class="cls-1" d="M115.4,12.54V18a22.92,22.92,0,0,1-11.59,19.94,22.07,22.07,0,0,0-13.66-.13A22,22,0,0,0,90,24.13,22.93,22.93,0,0,1,110,12.54Z"/><path class="cls-2" d="M106.82,35.87a23.12,23.12,0,0,1-3,2.05,22.07,22.07,0,0,0-13.66-.13,22.65,22.65,0,0,0,.78-3.33A25.12,25.12,0,0,1,106.82,35.87Z"/><path class="cls-3" d="M116.29,47.14c-4.06,4.08-6.41,6.94-11.67,8.93a22.08,22.08,0,0,1-23.47-5L77.31,47.2c-.1-.1-.49.37,3.84-4a22.08,22.08,0,0,1,31.24,0Z"/><path class="cls-2" d="M116.29,47.15l-3.9,3.9a22.1,22.1,0,0,1-31.24,0l-3.9-3.9,2-2,1.9,1.9a22.1,22.1,0,0,0,31.24,0l1.9-1.9Z"/><path class="cls-2" d="M93.48,37a22.65,22.65,0,0,0-3.33.78A22,22,0,0,0,90,24.13a22.23,22.23,0,0,1,2.06-3A25.16,25.16,0,0,1,93.48,37Z"/><path class="cls-4" d="M84.7,46.78c-4.33,4.34-3.86,3.95-4,3.85l-3.85-3.85a22.06,22.06,0,0,1-5-23.46c2-5.22,4.84-7.59,8.93-11.67l3.9,3.9A22.07,22.07,0,0,1,84.7,46.78Z"/><path class="cls-2" d="M84.7,46.79l-3.9,3.9-3.91-3.9a22,22,0,0,1-6.37-17.62c.82,9,6,13.25,10.28,17.52,4.53-4.53,9.47-8.65,10.28-17.52A22,22,0,0,1,84.7,46.79Z"/><path class="cls-2" d="M104.62,56.07a22.08,22.08,0,0,1-23.47-5L77.31,47.2a25,25,0,0,1,24.78,6.34Z"/><path class="cls-2" d="M80.74,50.63l-3.53.1-.32-3.95a22.06,22.06,0,0,1-5-23.46l2.53,2.53A25.09,25.09,0,0,1,80.74,50.63Z"/><path class="cls-5" d="M103.87,59.56c-4.06,4.08-6.41,6.94-11.67,8.93a22.08,22.08,0,0,1-23.47-5l-3.84-3.85c-.1-.1-.49.37,3.84-4a22.08,22.08,0,0,1,31.24,0Z"/><path class="cls-2" d="M103.87,59.57l-3.9,3.9a22.1,22.1,0,0,1-31.24,0l-3.9-3.9,2-2,1.9,1.9a22.1,22.1,0,0,0,31.24,0l1.9-1.9Z"/><path class="cls-6" d="M72.28,59.2c-4.33,4.34-3.86,3.95-4,3.85L64.47,59.2a22.06,22.06,0,0,1-5-23.46c2-5.22,4.84-7.59,8.93-11.67l3.9,3.9A22.07,22.07,0,0,1,72.28,59.2Z"/><path class="cls-2" d="M72.28,59.21l-3.9,3.9-3.91-3.9A22,22,0,0,1,58.1,41.59c.82,9,6,13.25,10.28,17.52,4.53-4.53,9.47-8.65,10.28-17.52A22,22,0,0,1,72.28,59.21Z"/><path class="cls-2" d="M92.2,68.49a22.08,22.08,0,0,1-23.47-5l-3.84-3.85A25,25,0,0,1,89.67,66Z"/><path class="cls-2" d="M68.32,63.05l-3.53.1-.32-3.95a22.06,22.06,0,0,1-5-23.46L62,38.27A25.09,25.09,0,0,1,68.32,63.05Z"/><path class="cls-7" d="M91.52,71.91c-4.06,4.08-6.41,6.94-11.67,8.93a22.08,22.08,0,0,1-23.47-5L52.54,72c-.1-.1-.49.37,3.84-4a22.08,22.08,0,0,1,31.24,0Z"/><path class="cls-2" d="M91.52,71.92l-3.9,3.9a22.1,22.1,0,0,1-31.24,0l-3.9-3.9,2-2,1.9,1.9a22.1,22.1,0,0,0,31.24,0l1.9-1.9Z"/><path class="cls-8" d="M59.93,71.55c-4.33,4.34-3.86,4-4,3.85l-3.85-3.85a22.06,22.06,0,0,1-5-23.46c2-5.22,4.84-7.59,8.93-11.67l3.9,3.9A22.07,22.07,0,0,1,59.93,71.55Z"/><path class="cls-2" d="M59.93,71.56,56,75.46l-3.91-3.9a22,22,0,0,1-6.37-17.62c.82,9,6,13.25,10.28,17.52,4.53-4.53,9.47-8.65,10.28-17.52A22,22,0,0,1,59.93,71.56Z"/><path class="cls-2" d="M79.85,80.84a22.08,22.08,0,0,1-23.47-5L52.54,72a25,25,0,0,1,24.78,6.34Z"/><path class="cls-2" d="M56,75.4l-3.53.1-.32-4a22.06,22.06,0,0,1-5-23.46l2.53,2.53A25.09,25.09,0,0,1,56,75.4Z"/><path class="cls-9" d="M79,84.41c-4.06,4.08-6.41,6.94-11.67,8.93a22.08,22.08,0,0,1-23.47-5L40,84.47c-.1-.1-.49.37,3.84-4a22.08,22.08,0,0,1,31.24,0Z"/><path class="cls-2" d="M79,84.42l-3.9,3.9a22.1,22.1,0,0,1-31.24,0L40,84.42l2-2,1.9,1.9a22.1,22.1,0,0,0,31.24,0l1.9-1.9Z"/><path class="cls-10" d="M47.43,84.05c-4.33,4.34-3.86,4-4,3.85l-3.85-3.85a22.06,22.06,0,0,1-5-23.46c2-5.22,4.84-7.59,8.93-11.67l3.9,3.9A22.07,22.07,0,0,1,47.43,84.05Z"/><path class="cls-2" d="M47.43,84.06,43.53,88l-3.91-3.9a22,22,0,0,1-6.37-17.62c.82,9,6,13.25,10.28,17.52,4.53-4.53,9.47-8.65,10.28-17.52A22,22,0,0,1,47.43,84.06Z"/><path class="cls-2" d="M67.35,93.34a22.08,22.08,0,0,1-23.47-5L40,84.47a25,25,0,0,1,24.78,6.34Z"/><path class="cls-2" d="M43.47,87.9l-3.53.1-.32-4a22.06,22.06,0,0,1-5-23.46l2.53,2.53A25.09,25.09,0,0,1,43.47,87.9Z"/><path class="cls-11" d="M55.36,83h5.52a0,0,0,0,1,0,0v5.52A22.09,22.09,0,0,1,38.8,110.64H33.28a0,0,0,0,1,0,0v-5.52A22.09,22.09,0,0,1,55.36,83Z" transform="translate(11.9 198.6) rotate(-135)"/><path class="cls-2" d="M66.6,96.84l-3.9,3.9a22.1,22.1,0,0,1-31.24,0l-3.9-3.9,2-2,1.9,1.9a22.1,22.1,0,0,0,31.24,0l1.9-1.9Z"/><path class="cls-12" d="M39.39,67.06h5.52a0,0,0,0,1,0,0v5.52A22.09,22.09,0,0,1,22.83,94.66H17.31a0,0,0,0,1,0,0V89.14A22.09,22.09,0,0,1,39.39,67.06Z" transform="translate(110.29 116.04) rotate(135)"/><path class="cls-2" d="M35,96.48l-3.9,3.9-3.91-3.9a22,22,0,0,1-6.37-17.62c.82,9,6,13.25,10.28,17.52,4.53-4.53,9.48-8.65,10.28-17.52A22,22,0,0,1,35,96.48Z"/><path class="cls-13" d="M27.34,96.61l4,4L5.77,126.17a2.83,2.83,0,0,1-4.83-2C.94,122.51-.39,124.33,27.34,96.61Z"/><path class="cls-14" d="M8.77,123.17c-2.88,2.88-3.44,3.83-5,3.83a2.83,2.83,0,0,1-2.83-2.83c0-1.51.79-2,3.83-5a2.83,2.83,0,0,0,4,4Z"/><path class="cls-15" d="M96.94,67a30,30,0,1,0,30,30A30,30,0,0,0,96.94,67Zm-22,30c0-17.89,20.12-28,34.48-18.13L78.81,109.48A21.91,21.91,0,0,1,74.94,97Zm22,22a21.91,21.91,0,0,1-12.48-3.87l30.61-30.61C124.94,98.83,114.87,119,96.94,119Z"/><path class="cls-16" d="M126.9,95.54a30,30,0,0,1-59.92,0C66,112.13,79.49,127,96.94,127S127.94,112.17,126.9,95.54Z"/><path class="cls-17" d="M98.61,66a23.63,23.63,0,0,0,2.13-1.86l3.9-3.91a1,1,0,0,0,.29-.71,1,1,0,0,0-.29-.71l-1.29-1.29a22.88,22.88,0,0,0,9.81-5.81l3.9-3.9h0l9.76-9.76a1,1,0,0,0,0-1.42,1,1,0,0,0-1.41,0l-9.06,9.06-3.19-3.2a23.13,23.13,0,0,0-7.09-4.83A24,24,0,0,0,116.46,18V13L127.71,1.71A1,1,0,0,0,126.29.29L115.05,11.54h-5a24,24,0,0,0-19.74,10.4,23,23,0,0,0-4.81-7.09l-3.2-3.2,9.06-9.06a1,1,0,0,0,0-1.41,1,1,0,0,0-1.42,0l-9.76,9.76L77.49,13.6l-1.24,1.25a22.82,22.82,0,0,0-5.81,9.81l-1.3-1.3a1,1,0,0,0-1.41,0l-3.9,3.91A22.94,22.94,0,0,0,58,37.08l-1.29-1.29a1,1,0,0,0-1.41,0l-3.91,3.9a23,23,0,0,0-5.81,9.81L44.3,48.21a1,1,0,0,0-1.42,0L39,52.11a22.88,22.88,0,0,0-5.81,9.81l-1.29-1.29a1,1,0,0,0-1.42,0l-3.9,3.91a23,23,0,0,0-.55,32L1.12,121.46a3.83,3.83,0,0,0,5.42,5.42L31.42,102a23.07,23.07,0,0,0,32-.55l2.6-2.59A31,31,0,1,0,98.61,66Zm.71-3.28A21,21,0,0,1,95,66.07a30.45,30.45,0,0,0-6.8,1.21,23,23,0,0,0-15.87-6.66l.71-.7A23,23,0,0,0,78.55,51c.54-.16,1-.28,1.51-.37a21,21,0,0,1,19.26,5.7l3.19,3.2ZM66.08,94.84h0Zm.23-2.19c-.6.2-1.22.38-1.88.53l-1-1a22.94,22.94,0,0,0-16-6.75l.7-.71a23,23,0,0,0,5.52-8.88A21,21,0,0,1,71.81,79,30.78,30.78,0,0,0,66.31,92.65ZM73,77.38a22.92,22.92,0,0,0-13.1-4.33l.71-.71a22.92,22.92,0,0,0,5.49-8.88,20.77,20.77,0,0,1,3.69-.73h0A21,21,0,0,1,86.05,68,31.2,31.2,0,0,0,73,77.38Zm41.92-30.24-2,2-1.24,1.24a20.88,20.88,0,0,1-10,5.58l-1-1a23,23,0,0,0-16-6.75l.71-.71A22.91,22.91,0,0,0,91,38.62a21,21,0,0,1,20.77,5.32ZM110,13.54h3.58a.93.93,0,0,0,.86.86V18a22,22,0,0,1-10.71,18.84,22.91,22.91,0,0,0-12.14-.44,23.33,23.33,0,0,0-.45-12.1A22,22,0,0,1,110,13.54ZM77.66,16.26,78.9,15l2-2,3.2,3.2a21.11,21.11,0,0,1,0,29.82l-2.29,2.28c-.7.08-1.4.19-2.1.34l-.49.1a23.06,23.06,0,0,0-6.13-21.53l-1-1A20.88,20.88,0,0,1,77.66,16.26ZM65.24,28.68l3.2-3.2,3.19,3.2a21.09,21.09,0,0,1,0,29.82l-2.26,2.27a23.74,23.74,0,0,0-2.61.45,23.06,23.06,0,0,0-6.13-21.53l-1-1A20.88,20.88,0,0,1,65.24,28.68ZM52.82,41.1,56,37.91l3.2,3.19a21.11,21.11,0,0,1,0,29.82l-2.27,2.27a23.44,23.44,0,0,0-2.59.46A23.27,23.27,0,0,0,55,68.44,22.94,22.94,0,0,0,48.2,52.11l-1-1A20.94,20.94,0,0,1,52.82,41.1ZM40.39,53.53l3.2-3.2,3.2,3.2A21.15,21.15,0,0,1,52.05,74.6h0a21,21,0,0,1-5.26,8.74l-2.27,2.27a23,23,0,0,0-2.59.44,22.95,22.95,0,0,0-6.15-21.52l-1-1A20.92,20.92,0,0,1,40.39,53.53ZM28,66l3.2-3.2,3.2,3.2a21.1,21.1,0,0,1,0,29.82L31.17,99,28.1,95.9h0L28,95.77A21.1,21.1,0,0,1,28,66ZM5.12,125.46a1.78,1.78,0,0,1-1.29.54A1.83,1.83,0,0,1,2,124.17a1.78,1.78,0,0,1,.54-1.29L27.39,98,30,100.61ZM62.05,100a21.1,21.1,0,0,1-29.45.33l3.18-3.18A23,23,0,0,0,41.3,88.3a21,21,0,0,1,20.75,5.33l3.2,3.2Zm35,26a29,29,0,1,1,29-29A29,29,0,0,1,97,126Z"/><path class="cls-17" d="M110.48,78.78a1,1,0,0,0-.43-.73,23,23,0,0,0-32,32,1,1,0,0,0,.73.43h.09a1,1,0,0,0,.71-.29l30.61-30.61A1,1,0,0,0,110.48,78.78ZM79,107.9a21,21,0,0,1,.48-22.52l.27-.26a.9.9,0,0,0,.23-.43A21,21,0,0,1,107.9,79Z"/><path class="cls-17" d="M115.22,83.52a1,1,0,0,0-.8.29L83.81,114.42A1,1,0,0,0,84,116a23,23,0,0,0,32-32A1,1,0,0,0,115.22,83.52ZM97,118a20.93,20.93,0,0,1-10.9-3L115,86.1A21,21,0,0,1,97,118Z"/></g></svg>