<svg xmlns="http://www.w3.org/2000/svg" viewBox="0 0 128 128"><defs><style>.cls-1{fill:#8cdd79;}.cls-2{fill:#7ece67;}.cls-3{fill:#e7f4ce;}.cls-4{fill:#6ab891;}.cls-5{fill:#4da67f;}.cls-6{fill:#9b756d;}.cls-7{fill:#f3f4f5;}</style></defs><title>Healthy Fruit</title><g id="Healthy_Fruit" data-name="Healthy Fruit"><path class="cls-1" d="M127,57.51c.75,22.7-19.62,53.49-34.7,53.49-9.85,0-8.38-1.67-13.25-1.67S75.58,111,65.79,111C50.43,111,31,80.35,31,59.33c0-17.58,7.18-35,24.82-35C66.92,24.33,74.86,28,79,28c5.16-.26,12.25-3.65,22.59-3.65,16.89-.89,24.92,15.89,25.38,33.11Z"/><path class="cls-2" d="M92.27,111c-9.85,0-8.38-1.67-13.25-1.67S75.58,111,65.79,111c-14.56,0-36.34-30.57-34.68-55.38C32.36,76.5,51.09,105,65.76,105c9.81,0,8.37-1.67,13.26-1.67S82.32,105,92.24,105c15.78,0,33.52-30.16,34.68-49.38C128.55,80,107.1,111,92.27,111Z"/><path class="cls-3" d="M116.07,59.33c0-11.6-3.65-24-13.9-24a1,1,0,0,1,0-2c11.72,0,15.9,13.43,15.9,26A1,1,0,0,1,116.07,59.33Z"/><path class="cls-4" d="M79,28H89A23,23,0,0,0,112,5H102A23,23,0,0,0,79,28Z"/><path class="cls-5" d="M112,5A23,23,0,0,1,89,28H79a22.79,22.79,0,0,1,.2-3H89A23,23,0,0,0,111.8,5Z"/><path class="cls-5" d="M78.57,27.35C79.11,26.72,91.91,12,103.16,12a1,1,0,0,1,0,2c-10.33,0-23,14.51-23.07,14.65A1,1,0,0,1,78.57,27.35Z"/><path class="cls-6" d="M78,29V15.33A12.31,12.31,0,0,0,65.75,3a1,1,0,0,1,0-2A14.31,14.31,0,0,1,80,15.33V29A1,1,0,0,1,78,29Z"/><circle class="cls-4" cx="31" cy="97" r="30"/><path class="cls-5" d="M31,127A30,30,0,0,1,1.14,94a30,30,0,0,0,59.72,0A30,30,0,0,1,31,127Z"/><polygon class="cls-7" points="25.5 110.93 12.88 98.31 17.12 94.07 25.5 102.45 44.88 83.07 49.12 87.31 25.5 110.93"/></g></svg>