<svg xmlns="http://www.w3.org/2000/svg" xmlns:xlink="http://www.w3.org/1999/xlink" viewBox="0 0 128 128"><defs><style>.cls-1{fill:url(#linear-gradient);}.cls-2{fill:#7ece67;}.cls-3{fill:url(#linear-gradient-2);}.cls-4{fill:#4da67f;}.cls-5{fill:url(#linear-gradient-3);}.cls-6{fill:#cba07a;}.cls-7{fill:url(#linear-gradient-4);}.cls-8{fill:#e8c4a6;}.cls-9{fill:url(#linear-gradient-5);}.cls-10{fill:#8a6762;}.cls-11{fill:url(#linear-gradient-6);}.cls-12{fill:url(#linear-gradient-7);}.cls-13{fill:url(#linear-gradient-8);}.cls-14{fill:#c7cdd8;}.cls-15{fill:url(#linear-gradient-9);}.cls-16{fill:url(#linear-gradient-10);}.cls-17{fill:#8288a1;}.cls-18{fill:url(#linear-gradient-11);}.cls-19{fill:#47566a;}</style><linearGradient id="linear-gradient" x1="106.01" y1="63" x2="106.01" y2="25.18" gradientUnits="userSpaceOnUse"><stop offset="0" stop-color="#8cdd79"/><stop offset="1" stop-color="#d4e6b6"/></linearGradient><linearGradient id="linear-gradient-2" x1="113.28" y1="26.64" x2="113.28" y2="16.45" gradientUnits="userSpaceOnUse"><stop offset="0" stop-color="#6ab891"/><stop offset="1" stop-color="#85cba9"/></linearGradient><linearGradient id="linear-gradient-3" x1="25.02" y1="43" x2="25.02" y2="23" gradientUnits="userSpaceOnUse"><stop offset="0" stop-color="#d1a788"/><stop offset="1" stop-color="#f2d3b8"/></linearGradient><linearGradient id="linear-gradient-4" x1="25.01" y1="63" x2="25.01" y2="53" xlink:href="#linear-gradient-3"/><linearGradient id="linear-gradient-5" x1="25.01" y1="49.03" x2="25.01" y2="42.96" gradientUnits="userSpaceOnUse"><stop offset="0" stop-color="#9b756d"/><stop offset="1" stop-color="#bc9388"/></linearGradient><linearGradient id="linear-gradient-6" x1="25.01" y1="53.04" x2="25.01" y2="48.97" gradientUnits="userSpaceOnUse"><stop offset="0" stop-color="#da5466"/><stop offset="1" stop-color="#e87092"/></linearGradient><linearGradient id="linear-gradient-7" x1="26.01" y1="50" x2="26.01" y2="43" gradientUnits="userSpaceOnUse"><stop offset="0" stop-color="#fbcc88"/><stop offset="1" stop-color="#ffe5c3"/></linearGradient><linearGradient id="linear-gradient-8" x1="64.01" y1="69" x2="64.01" y2="63" gradientUnits="userSpaceOnUse"><stop offset="0" stop-color="#d4d8e1"/><stop offset="1" stop-color="#f3f4f5"/></linearGradient><linearGradient id="linear-gradient-9" x1="64.01" y1="113" x2="64.01" y2="72.02" xlink:href="#linear-gradient-3"/><linearGradient id="linear-gradient-10" x1="64.01" y1="75" x2="64.01" y2="57" gradientUnits="userSpaceOnUse"><stop offset="0" stop-color="#949aaf"/><stop offset="1" stop-color="#c6ccda"/></linearGradient><linearGradient id="linear-gradient-11" x1="64.01" y1="70" x2="64.01" y2="62" gradientUnits="userSpaceOnUse"><stop offset="0" stop-color="#454b60"/><stop offset="1" stop-color="#575f7c"/></linearGradient></defs><title>Nutrition Balance</title><g id="Nutrition_Balance" data-name="Nutrition Balance"><path class="cls-1" d="M115.56,25.19c8-.3,11.45,7.16,11.45,15.26C127,49.91,118.32,63,111.8,63c-4.34,0-3.62-.73-5.79-.73s-1.45.73-5.79.73C93.7,63,85,49.91,85,40.45s4.34-15.27,10.86-15.27c5.07,0,8,1.46,10.14,1.46Z"/><path class="cls-2" d="M111.8,63c-4.34,0-3.62-.73-5.79-.73s-1.45.73-5.79.73C94.36,63,84.1,50.49,85.1,38.15,86,47.4,94.08,59,100.22,59c4.34,0,3.62-.73,5.79-.73s1.45.73,5.79.73c6.14,0,14.2-11.6,15.12-20.85C127.92,50.54,117.61,63,111.8,63Z"/><path class="cls-3" d="M106,26.64h4.36a10.19,10.19,0,0,0,10.19-10.19h-4.37A10.19,10.19,0,0,0,106,26.64Z"/><path class="cls-4" d="M120.56,16.45a10.19,10.19,0,0,1-10.19,10.19H106a10.22,10.22,0,0,1,.45-3h3.91a10.18,10.18,0,0,0,9.74-7.19Z"/><path class="cls-5" d="M45,43H5a4,4,0,0,1-4-4A16,16,0,0,1,17,23H33C48.26,23,53.44,43,45,43Z"/><path class="cls-6" d="M49,39a4,4,0,0,1-4,4H5a4,4,0,0,1-4-4,15,15,0,0,1,.13-2A4,4,0,0,0,5,40H45a4,4,0,0,0,3.87-3A15,15,0,0,1,49,39Z"/><path class="cls-7" d="M43,63H7a6,6,0,0,1-6-6,4,4,0,0,1,4-4H45a4,4,0,0,1,4,4A6,6,0,0,1,43,63Z"/><path class="cls-6" d="M43,63H7c-4.32,0-6.87-4.43-5.76-7.34A6,6,0,0,0,7,60H43a6,6,0,0,0,5.76-4.34C49.89,58.59,47.31,63,43,63Z"/><path class="cls-8" d="M26,29a1,1,0,0,1-2,0A1,1,0,0,1,26,29Z"/><path class="cls-8" d="M18,29a1,1,0,0,1-2,0A1,1,0,0,1,18,29Z"/><path class="cls-8" d="M34,29a1,1,0,0,1-2,0A1,1,0,0,1,34,29Z"/><path class="cls-8" d="M26,37a1,1,0,0,1-2,0A1,1,0,0,1,26,37Z"/><path class="cls-8" d="M18,37a1,1,0,0,1-2,0A1,1,0,0,1,18,37Z"/><path class="cls-8" d="M10,37a1,1,0,0,1-2,0A1,1,0,0,1,10,37Z"/><path class="cls-8" d="M34,37a1,1,0,0,1-2,0A1,1,0,0,1,34,37Z"/><path class="cls-8" d="M42,37a1,1,0,0,1-2,0A1,1,0,0,1,42,37Z"/><path class="cls-8" d="M22,33a1,1,0,0,1-2,0A1,1,0,0,1,22,33Z"/><path class="cls-8" d="M14,33a1,1,0,0,1-2,0A1,1,0,0,1,14,33Z"/><path class="cls-8" d="M30,33a1,1,0,0,1-2,0A1,1,0,0,1,30,33Z"/><path class="cls-8" d="M38,33a1,1,0,0,1-2,0A1,1,0,0,1,38,33Z"/><path class="cls-9" d="M29.5,49c17,0,16.45.3,17.63-.88A3,3,0,0,0,45,43c-43.68,0-40.9-.34-42.12.88A3,3,0,0,0,5,49H26.93"/><path class="cls-10" d="M45,49H5a3,3,0,0,1-2.6-4.5A3,3,0,0,0,5,46c42.56,0,41.33.59,42.6-1.5A3,3,0,0,1,45,49Z"/><path class="cls-11" d="M29.5,49H46a2,2,0,0,1,1.41,3.41C46.6,53.25,49.86,53,4,53A2,2,0,0,1,2.6,49.59c.81-.83-.49-.59,24.33-.59"/><polygon class="cls-12" points="28.58 50 17.01 43 35.01 43 28.58 50"/><path class="cls-13" d="M55.53,63H1v6H127V63H72.49"/><path class="cls-14" d="M55.53,66H1v3H127V66H72.49"/><path class="cls-15" d="M89,113H39L57.32,72H70.7Z"/><polygon class="cls-6" points="89.01 113 39.01 113 41.69 107 86.33 107 89.01 113"/><circle class="cls-16" cx="64.01" cy="66" r="9"/><path class="cls-6" d="M72,75a12,12,0,0,1-16,0L57.32,72H70.7Z"/><path class="cls-17" d="M64,75a9,9,0,0,1-8.88-10.5,9,9,0,0,0,17.76,0A9,9,0,0,1,64,75Z"/><circle class="cls-18" cx="64.01" cy="66" r="4"/><circle class="cls-19" cx="25" cy="29" r="1"/><circle class="cls-19" cx="17" cy="29" r="1"/><circle class="cls-19" cx="33" cy="29" r="1"/><circle class="cls-19" cx="25" cy="37" r="1"/><circle class="cls-19" cx="17" cy="37" r="1"/><circle class="cls-19" cx="9" cy="37" r="1"/><circle class="cls-19" cx="33" cy="37" r="1"/><circle class="cls-19" cx="41" cy="37" r="1"/><circle class="cls-19" cx="21" cy="33" r="1"/><circle class="cls-19" cx="13" cy="33" r="1"/><circle class="cls-19" cx="29" cy="33" r="1"/><circle class="cls-19" cx="37" cy="33" r="1"/><path class="cls-19" d="M127,62H116.91C122.58,57.89,128,48.21,128,40.45c0-8.88-3.77-14.93-9.77-16.06a11.14,11.14,0,0,0,3.32-7.94,1,1,0,0,0-1-1h-4.37A11.18,11.18,0,0,0,107,20.31,6.82,6.82,0,0,0,100.18,14a1,1,0,0,0,0,2A4.82,4.82,0,0,1,105,20.82v4.72c-.52-.09-1.11-.22-1.78-.38a29.75,29.75,0,0,0-7.36-1C88.66,24.18,84,30.57,84,40.45,84,48.21,89.42,57.89,95.09,62H73.16a10,10,0,0,0-18.32,0h-7A7,7,0,0,0,50,57a5,5,0,0,0-1.89-3.88A3,3,0,0,0,49,51a3,3,0,0,0-1.08-2.29,4,4,0,0,0-.13-5.56A5,5,0,0,0,50,39,17,17,0,0,0,33,22H17A17,17,0,0,0,0,39a5,5,0,0,0,2.21,4.15l0,0a4,4,0,0,0-.09,5.55c-.06.05-.13.09-.19.15a3,3,0,0,0,0,4.25A5,5,0,0,0,0,57a7,7,0,0,0,2.11,5H1a1,1,0,0,0-1,1v6a1,1,0,0,0,1,1H54.84a10,10,0,0,0,1.31,2.17L38.09,112.59A1,1,0,0,0,39,114H89a1,1,0,0,0,.91-1.41L71.85,72.17A10,10,0,0,0,73.16,70H127a1,1,0,0,0,1-1V63A1,1,0,0,0,127,62ZM116.18,17.45h3.31a9.15,9.15,0,0,1-4.32,6.82.91.91,0,0,0-.13.08,9.18,9.18,0,0,1-4.68,1.29h-3.31A9.2,9.2,0,0,1,116.18,17.45ZM86,40.45c0-8.67,3.87-14.27,9.86-14.27a28.27,28.27,0,0,1,6.9.93,15.59,15.59,0,0,0,3.22.53h4.38a11.18,11.18,0,0,0,5.49-1.45h.29c6,0,9.86,5.6,9.86,14.27C126,49.31,117.63,62,111.79,62a10.81,10.81,0,0,1-3.72-.41,6.86,6.86,0,0,0-4.14,0,10.81,10.81,0,0,1-3.72.41C94.37,62,86,49.31,86,40.45ZM64,58a8,8,0,1,1-8,8A8,8,0,0,1,64,58ZM47,46a2,2,0,0,1-2,2H31.77l3.67-4H45A2,2,0,0,1,47,46ZM20.58,44H32.72l-4.33,4.72ZM2,39A15,15,0,0,1,17,24H33A15,15,0,0,1,48,39a3,3,0,0,1-3,3H5A3,3,0,0,1,2,39Zm14.72,5,6.61,4H5a2,2,0,0,1-2-2,2,2,0,0,1,2-2ZM4,52a1,1,0,0,1-1-1,1,1,0,0,1,.31-.71A.93.93,0,0,1,4,50H26.64l1.41.86a1.07,1.07,0,0,0,.52.14,1,1,0,0,0,.74-.32l.62-.68H46a1,1,0,0,1,1,1,1,1,0,0,1-.31.71A.93.93,0,0,1,46,52H4ZM2,57a3,3,0,0,1,3-3H45a3,3,0,0,1,3,3,5,5,0,0,1-5,5H7A5,5,0,0,1,2,57ZM2,68V64H54.2a10.1,10.1,0,0,0,0,4Zm38.54,44L57.65,73.72a10,10,0,0,0,12.7,0L87.46,112ZM126,68H73.8a10.1,10.1,0,0,0,0-4H126Z"/><path class="cls-19" d="M64,71a5,5,0,1,0-5-5A5,5,0,0,0,64,71Zm0-8a3,3,0,1,1-3,3A3,3,0,0,1,64,63Z"/></g></svg>