<svg xmlns="http://www.w3.org/2000/svg" viewBox="0 0 128 128"><defs><style>.cls-1{fill:#8cdd79;}.cls-2{fill:#7ece67;}.cls-3{fill:#e7f4ce;}.cls-4{fill:#6ab891;}.cls-5{fill:#4da67f;}.cls-6{fill:#949aaf;}.cls-7{fill:#8288a1;}.cls-8{fill:#9dd5df;}.cls-9{fill:#77cacb;}.cls-10{fill:#9b756d;}.cls-11{fill:#8a6762;}</style></defs><title>Reseach</title><g id="Reseach"><path class="cls-1" d="M127,57.51c.76,22.7-19.61,53.49-34.7,53.49-9.84,0-8.37-1.67-13.25-1.67S75.59,111,65.79,111C50.44,111,31,80.35,31,59.33c0-17.58,7.19-35,24.82-35C66.93,24.33,74.87,28,79,28c5.17-.26,12.26-3.65,22.59-3.65,16.9-.89,24.92,15.89,25.38,33.11Z"/><path class="cls-2" d="M92.27,111c-9.84,0-8.37-1.67-13.25-1.67S75.59,111,65.79,111c-14.56,0-36.33-30.57-34.68-55.38C32.37,76.5,51.1,105,65.76,105c9.81,0,8.38-1.67,13.26-1.67S82.32,105,92.24,105c15.79,0,33.53-30.16,34.68-49.38C128.55,80,107.11,111,92.27,111Z"/><path class="cls-3" d="M116.07,59.33c0-11.6-3.65-24-13.89-24a1,1,0,0,1,0-2c11.72,0,15.89,13.43,15.89,26A1,1,0,0,1,116.07,59.33Z"/><path class="cls-4" d="M79,28H89A23,23,0,0,0,112,5H102A23,23,0,0,0,79,28Z"/><path class="cls-5" d="M112,5A23,23,0,0,1,89,28H79a22.79,22.79,0,0,1,.2-3H89A23,23,0,0,0,111.8,5Z"/><path class="cls-5" d="M78.58,27.35C79.12,26.72,91.92,12,103.17,12a1,1,0,0,1,0,2c-10.33,0-23,14.51-23.07,14.65A1,1,0,0,1,78.58,27.35Z"/><circle class="cls-6" cx="52" cy="76" r="28"/><path class="cls-7" d="M52,104A28,28,0,0,1,24,74.5,28,28,0,0,0,80,74.5,28,28,0,0,1,52,104Z"/><path class="cls-2" d="M55.16,106.82a35.88,35.88,0,0,1-3.4-2.83H52A28,28,0,0,0,80,77.5,28,28,0,0,1,55.16,106.82Z"/><circle class="cls-8" cx="52" cy="76" r="22"/><path class="cls-9" d="M73.91,78a22,22,0,0,0-43.82,0,22,22,0,1,1,43.82,0Z"/><rect class="cls-7" x="27.11" y="95.02" width="6.08" height="5.66" transform="translate(-60.36 49.98) rotate(-45)"/><path class="cls-10" d="M78,29V15.33A12.3,12.3,0,0,0,65.76,3a1,1,0,0,1,0-2A14.3,14.3,0,0,1,80,15.33V29A1,1,0,0,1,78,29Z"/><path class="cls-10" d="M6,127a5,5,0,0,1-3.5-8.45l22.05-22,7,7-22,22A4.92,4.92,0,0,1,6,127Z"/><path class="cls-11" d="M31.5,103.5l-22,22a5,5,0,0,1-8.22-5,5,5,0,0,0,8.22,2L30,102Z"/></g></svg>