<svg xmlns="http://www.w3.org/2000/svg" xmlns:xlink="http://www.w3.org/1999/xlink" viewBox="0 0 128 128"><defs><style>.cls-1{fill:url(#linear-gradient);}.cls-2{fill:url(#linear-gradient-2);}.cls-3{fill:#8288a1;}.cls-4{fill:url(#linear-gradient-3);}.cls-5{fill:url(#linear-gradient-4);}.cls-6{fill:url(#linear-gradient-5);}.cls-7{fill:#5b8dc9;}.cls-8{fill:url(#linear-gradient-6);}.cls-9{fill:#7ece67;}.cls-10{fill:url(#linear-gradient-7);}.cls-11{fill:#4da67f;}.cls-12{fill:url(#linear-gradient-8);}.cls-13{fill:#47566a;}</style><linearGradient id="linear-gradient" x1="64" y1="73.53" x2="64" y2="67.53" gradientUnits="userSpaceOnUse"><stop offset="0" stop-color="#d4d8e1"/><stop offset="1" stop-color="#f3f4f5"/></linearGradient><linearGradient id="linear-gradient-2" x1="64" y1="81.53" x2="64" y2="73.53" gradientUnits="userSpaceOnUse"><stop offset="0" stop-color="#949aaf"/><stop offset="1" stop-color="#c6ccda"/></linearGradient><linearGradient id="linear-gradient-3" x1="64" y1="127.53" x2="64" y2="81.53" gradientUnits="userSpaceOnUse"><stop offset="0" stop-color="#9dd5df"/><stop offset="1" stop-color="#c3e1f5"/></linearGradient><linearGradient id="linear-gradient-4" x1="63.99" y1="114.53" x2="63.99" y2="87.53" xlink:href="#linear-gradient"/><linearGradient id="linear-gradient-5" x1="64" y1="127.53" x2="64" y2="119.53" gradientUnits="userSpaceOnUse"><stop offset="0" stop-color="#7aa8d7"/><stop offset="1" stop-color="#96c8ea"/></linearGradient><linearGradient id="linear-gradient-6" x1="64" y1="67.53" x2="64" y2="15.53" gradientUnits="userSpaceOnUse"><stop offset="0" stop-color="#8cdd79"/><stop offset="1" stop-color="#d4e6b6"/></linearGradient><linearGradient id="linear-gradient-7" x1="74" y1="17.53" x2="74" y2="3.53" gradientUnits="userSpaceOnUse"><stop offset="0" stop-color="#6ab891"/><stop offset="1" stop-color="#85cba9"/></linearGradient><linearGradient id="linear-gradient-8" x1="64" y1="114.53" x2="64" y2="111.53" xlink:href="#linear-gradient"/></defs><title>Scale</title><g id="Scale"><rect class="cls-1" x="20" y="67.53" width="88" height="6"/><rect class="cls-2" x="36" y="73.53" width="56" height="8"/><rect class="cls-3" x="36" y="78.53" width="56" height="3"/><path class="cls-4" d="M96,81.53H32c-20.24,34.4-20,33.14-20,36.18v5.82a4,4,0,0,0,4,4h96a4,4,0,0,0,4-4v-5.82C116,114.72,116.36,116.14,96,81.53Z"/><path class="cls-5" d="M75.62,114.53H52.38c-9.66-10.23-2.34-27,11.62-27S85.2,104.39,75.62,114.53Z"/><path class="cls-6" d="M12,119.53H116a0,0,0,0,1,0,0v4a4,4,0,0,1-4,4H16a4,4,0,0,1-4-4v-4A0,0,0,0,1,12,119.53Z"/><path class="cls-7" d="M116,119.53v4a4,4,0,0,1-4,4H16a4,4,0,0,1-4-4v-4a4,4,0,0,0,4,4h96A4,4,0,0,0,116,119.53Z"/><path class="cls-8" d="M77.19,15.54c11.1-.41,15.81,9.85,15.81,21,0,13-12,31-21,31-6,0-5-1-8-1s-2,1-8,1c-9,0-21-18-21-31s6-21,15-21c7,0,11,2,14,2"/><path class="cls-9" d="M72,67.53c-6,0-5-1-8-1s-2,1-8,1c-8.46,0-22.27-18-20.89-33.87C36.28,46.41,47.48,62.53,56,62.53c6,0,5-1,8-1s2,1,8,1c8.52,0,19.72-16.12,20.89-28.87C94.26,49.45,80.57,67.53,72,67.53Z"/><path class="cls-10" d="M64,17.53h6a14,14,0,0,0,14-14H78A14,14,0,0,0,64,17.53Z"/><path class="cls-11" d="M84,3.53a14,14,0,0,1-14,14H64a14.14,14.14,0,0,1,.32-3H70a14,14,0,0,0,13.68-11Z"/><path class="cls-12" d="M77.86,111.53a16.06,16.06,0,0,1-2.24,3H52.38a16.06,16.06,0,0,1-2.24-3Z"/><path class="cls-13" d="M78,22c5.9,0,8,7.23,8,14a1,1,0,0,0,2,0c0-7.74-2.63-16-10-16a1,1,0,0,0,0,2Z"/><path class="cls-13" d="M115.76,112.62,96.86,80.49A1,1,0,0,0,96,80H93V74h15a1,1,0,0,0,1-1V67a1,1,0,0,0-1-1H77.89C86,60.9,94,47,94,36c0-12.42-5.43-20.74-14-21.86A15,15,0,0,0,85,3a1,1,0,0,0-1-1H78A15,15,0,0,0,65,9.55V9a9,9,0,0,0-9-9,1,1,0,0,0,0,2,7,7,0,0,1,7,7v6.92a27.06,27.06,0,0,1-2.93-.59A41.4,41.4,0,0,0,50,14c-9.72,0-16,8.64-16,22,0,11,8,24.9,16.11,30H20a1,1,0,0,0-1,1v6a1,1,0,0,0,1,1H35v6H32a1,1,0,0,0-.86.49l-18.9,32.13A9,9,0,0,0,11,117.18V123a5,5,0,0,0,5,5h96a5,5,0,0,0,5-5v-5.82A9,9,0,0,0,115.76,112.62ZM78,4h5A13,13,0,0,1,70,16H65A13,13,0,0,1,78,4ZM36,36c0-12.15,5.5-20,14-20a39.53,39.53,0,0,1,9.62,1.28A20,20,0,0,0,64,18h6a14.88,14.88,0,0,0,7.44-2H78c8.5,0,14,7.85,14,20,0,12.62-11.59,30-20,30a15.27,15.27,0,0,1-5.25-.58,9.21,9.21,0,0,0-5.5,0A15.27,15.27,0,0,1,56,66C47.59,66,36,48.62,36,36ZM21,68h86v4H21Zm16,6H91v6H37ZM14,113.63,32.57,82H95.43L114,113.63a6.92,6.92,0,0,1,1,3.55V118H13v-.82A6.92,6.92,0,0,1,14,113.63ZM115,123a3,3,0,0,1-3,3H16a3,3,0,0,1-3-3v-3H115Z"/><path class="cls-13" d="M52.38,115H75.62a1,1,0,0,0,.73-.31,17,17,0,1,0-24.7,0A1,1,0,0,0,52.38,115ZM64,88a15,15,0,0,1,11.18,25H52.82A15,15,0,0,1,64,88Z"/><path class="cls-13" d="M64,110a2,2,0,0,0,1-3.72V97a1,1,0,0,0-2,0v9.28A2,2,0,0,0,64,110Z"/><path class="cls-13" d="M55,103a1,1,0,0,0-1-1H52a1,1,0,0,0,0,2h2A1,1,0,0,0,55,103Z"/><path class="cls-13" d="M73,103a1,1,0,0,0,1,1h2a1,1,0,0,0,0-2H74A1,1,0,0,0,73,103Z"/><path class="cls-13" d="M64,94a1,1,0,0,0,1-1V91a1,1,0,0,0-2,0v2A1,1,0,0,0,64,94Z"/><path class="cls-13" d="M71.07,96.93a1,1,0,0,0,.71-.29l1.41-1.42a1,1,0,0,0-1.41-1.41l-1.42,1.41a1,1,0,0,0,0,1.42A1,1,0,0,0,71.07,96.93Z"/><path class="cls-13" d="M56.22,96.64a1,1,0,0,0,.71.29,1,1,0,0,0,.71-.29,1,1,0,0,0,0-1.42l-1.42-1.41a1,1,0,0,0-1.41,1.41Z"/></g></svg>