<svg xmlns="http://www.w3.org/2000/svg" viewBox="0 0 128 128"><defs><style>.cls-1{fill:#8cdd79;}.cls-2{fill:#7ece67;}.cls-3{fill:#6ab891;}.cls-4{fill:#4da67f;}.cls-5{fill:#e2607f;}.cls-6{fill:#e87092;}.cls-7{fill:#e8677d;}.cls-8{fill:#dd4e6a;}.cls-9{fill:#d4d8e1;}.cls-10{fill:#c7cdd8;}</style></defs><title>Vegetable</title><g id="Vegetable"><path class="cls-1" d="M75,45H25V39.27c-.42-3.79,3.41-7.72,7.52-7.24-3.37-9.41,8.79-16.32,15.23-9a6,6,0,0,1,9.75-1,9,9,0,0,1,17.22.75Z"/><path class="cls-2" d="M89.52,44H26a9,9,0,0,1,12.28-9.32A4,4,0,0,1,45.5,33.3,7,7,0,0,1,53,33.21a9,9,0,1,1,17.82,2.42A6,6,0,0,1,79,41,8.93,8.93,0,0,1,89.52,44Z"/><path class="cls-2" d="M75,45H61.29l.17-5.8c2-8.39,6.23-14.86,12-19.22a8.86,8.86,0,0,1,1.26,2.82Z"/><path class="cls-3" d="M105.71,28.18c-.06,1,.55-5.89-2.71,26.82H64l.45-15.4c2-8.55,6.94-15.55,14.55-19.6C94,12,98,4,98,4S106.61,14.25,105.71,28.18Z"/><path class="cls-4" d="M72.89,45.89C76.47,33,89.21,31.15,94.09,20.58a1,1,0,0,1,1.82.84c-5.18,11.22-17.72,12.84-21.1,25A1,1,0,0,1,72.89,45.89Z"/><path class="cls-4" d="M105.71,28.18c-.06,1,.55-5.89-2.71,26.82H73.57l-.34-5.58c2.19-10.66,13.06-20.45,28.42-21C103.08,28.38,104.43,28.3,105.71,28.18Z"/><path class="cls-3" d="M118.71,55.43c-1.4,1.63-1.89,2-6.71,6.57H77l-.75-12.36C78.09,40.77,88,31.92,101.76,31.43c17-.59,24.1-6,24.1-6S130,42.2,118.71,55.43Z"/><path class="cls-5" d="M38,62H6.09C-.38,44.84,21.2,31.16,34,44a17.16,17.16,0,0,1,3.8,5.79Z"/><path class="cls-6" d="M23,59.87,23,62H10.47a13.06,13.06,0,0,1-1.05-9.3,3,3,0,0,1,5-1.41Z"/><path class="cls-7" d="M23,59.83V62H10.47a12.87,12.87,0,0,1-1.31-4h12Z"/><path class="cls-6" d="M34.49,52.41l-9.85,3.4-7.35-7.35a3,3,0,0,1,1.41-5A13,13,0,0,1,34.49,52.41Z"/><path class="cls-8" d="M23.18,62c0-2.28.1-2.07,0-2.17l-1.89-1.89a19.52,19.52,0,0,1,.2-5.46l3.33,3.33,9.85-3.4a13,13,0,0,0-9.07-8.95,20.87,20.87,0,0,1,3.16-3.14A17,17,0,0,1,38,49.77L38.18,62Z"/><path class="cls-7" d="M34.67,52.41l-9.85,3.4-3.33-3.33a19.76,19.76,0,0,1,4.11-9A13,13,0,0,1,34.67,52.41Z"/><path class="cls-8" d="M10.47,62H6.09a16.93,16.93,0,0,1-1-4h4A12.87,12.87,0,0,0,10.47,62Z"/><path class="cls-5" d="M57,62H25.09c-5.28-14,8.82-27.41,22.49-21.68a17,17,0,0,1,9.24,9.45Z"/><path class="cls-6" d="M42,59.87,42,62H29.47a13.06,13.06,0,0,1-1-9.3,3,3,0,0,1,5-1.41Z"/><path class="cls-7" d="M42,59.83V62H29.47a12.87,12.87,0,0,1-1.31-4h12Z"/><path class="cls-6" d="M53.49,52.41l-9.85,3.4-7.35-7.35a3,3,0,0,1,1.41-5A13,13,0,0,1,53.49,52.41Z"/><path class="cls-8" d="M29.47,62H25.09a16.93,16.93,0,0,1-1-4h4A12.87,12.87,0,0,0,29.47,62Z"/><polyline class="cls-9" points="91 110.91 91 124 37 124 37 110.91"/><polyline class="cls-10" points="91 119 91 124 37 124 37 119"/><path class="cls-9" d="M1,62H127a0,0,0,0,1,0,0v4a46,46,0,0,1-46,46H47A46,46,0,0,1,1,66V62A0,0,0,0,1,1,62Z"/><path class="cls-10" d="M126.63,71.86A46,46,0,0,1,81,112H47A46,46,0,0,1,1.37,71.86a46.39,46.39,0,0,0,45,35.14H81.64A46.39,46.39,0,0,0,126.63,71.86Z"/><path class="cls-8" d="M42,62c0-2.28.1-2.07,0-2.17l-1.89-1.89a19.52,19.52,0,0,1,.2-5.46l3.33,3.33,9.85-3.4a13,13,0,0,0-9.07-8.95,20.87,20.87,0,0,1,3.16-3.14,17,17,0,0,1,9.24,9.45L57,62Z"/><path class="cls-7" d="M53.49,52.41l-9.85,3.4-3.33-3.33a19.76,19.76,0,0,1,4.11-9A13,13,0,0,1,53.49,52.41Z"/><path class="cls-4" d="M78.89,55H64c.49-16.68.2-15.11,1.27-18.3a20.06,20.06,0,0,1,13.34,12C78.89,49.38,78.8,48.31,78.89,55Z"/><path class="cls-5" d="M76,62H44.09C37.62,44.84,59.2,31.16,72,44a17.16,17.16,0,0,1,3.8,5.79Z"/><path class="cls-6" d="M61,59.87,61,62H48.47a13.06,13.06,0,0,1-1-9.3,3,3,0,0,1,5-1.41Z"/><path class="cls-7" d="M61,59.83V62H48.47a12.87,12.87,0,0,1-1.31-4h12Z"/><path class="cls-6" d="M72.49,52.41l-9.85,3.4-7.35-7.35a3,3,0,0,1,1.41-5A13,13,0,0,1,72.49,52.41Z"/><path class="cls-8" d="M61,62c0-2.28.1-2.07,0-2.17l-2.47-2.47a12.48,12.48,0,0,1,2-3.7l2.15,2.15,9.85-3.4c-1-3.51-2.26-3.5-.78-3.24a6.9,6.9,0,0,1,2.75-2.1,17.07,17.07,0,0,1,1.36,2.7L76,62Z"/><path class="cls-7" d="M72.49,52.41l-9.85,3.4-2.15-2.15A12,12,0,0,1,71,49.09,12.64,12.64,0,0,1,72.49,52.41Z"/><path class="cls-7" d="M61,59.87,61,62H58a11.77,11.77,0,0,1,.53-4.64Z"/><path class="cls-4" d="M118.71,55.43c-1.4,1.63-1.89,2-6.71,6.57H77l-.75-12.36a16.74,16.74,0,0,1,1-3.12,6.91,6.91,0,0,1,3.85,1.19,9.88,9.88,0,0,1,3.24-.54c1.94,0,1.55.42,1.86-.25,5.23-10.16,20.42-8,22.49,3.31a9,9,0,0,1,7.47,5.18A12.14,12.14,0,0,1,118.71,55.43Z"/><path class="cls-4" d="M101.65,43.91c4.83-1,9.38-2,13.41-5.33a1,1,0,0,1,1.26,1.56c-4.39,3.58-9.4,4.67-14.24,5.73A1,1,0,0,1,101.65,43.91Z"/><path class="cls-1" d="M124.52,62H61a9,9,0,0,1,12.28-9.32A4,4,0,0,1,80.5,51.3,7,7,0,0,1,88,51.21a9,9,0,1,1,17.82,2.42A6,6,0,0,1,114,59,8.93,8.93,0,0,1,124.52,62Z"/><path class="cls-2" d="M124.52,62H61a8.75,8.75,0,0,1,.48-4h52.38a5.58,5.58,0,0,1,.12,1A8.93,8.93,0,0,1,124.52,62Z"/><path class="cls-8" d="M48.47,62H44.09a16.93,16.93,0,0,1-1-4h4A12.87,12.87,0,0,0,48.47,62Z"/><polygon class="cls-8" points="61 58 61 59.83 59.17 58 61 58"/></g></svg>